<svg width="20" height="23" viewBox="0 0 20 23" fill="none" xmlns="http://www.w3.org/2000/svg">
<path d="M10.1605 22.3984C11.3869 22.3984 12.6013 22.1568 13.7344 21.6875C14.8675 21.2181 15.897 20.5302 16.7642 19.663C17.6314 18.7958 18.3193 17.7663 18.7886 16.6333C19.258 15.5002 19.4995 14.2858 19.4995 13.0594C19.4995 11.833 19.258 10.6186 18.7886 9.48551C18.3193 8.35245 17.6314 7.32293 16.7642 6.45572C15.897 5.58852 14.8675 4.90061 13.7344 4.43129C12.6013 3.96196 11.3869 3.7204 10.1605 3.7204" stroke="#4C3B33"/>
<path d="M10.1605 3.7204C4.18277 3.7204 1.22912 3.7204 0.499512 3.7204" stroke="#4C3B33"/>
<path d="M10.1605 22.3983C4.18277 22.3983 1.22912 22.3983 0.499512 22.3983" stroke="#4C3B33"/>
<path d="M6.29639 6.9408C4.16702 4.48317 2.27425 3.72046 0.499777 3.72046" stroke="#4C3B33" stroke-linecap="round"/>
<path d="M6.29639 0.5C4.16702 2.95763 2.27425 3.72034 0.499777 3.72034" stroke="#4C3B33" stroke-linecap="round"/>
</svg>
