<?xml version="1.0" standalone="no"?>
<!DOCTYPE svg PUBLIC "-//W3C//DTD SVG 20010904//EN"
 "http://www.w3.org/TR/2001/REC-SVG-20010904/DTD/svg10.dtd">
<svg version="1.0" xmlns="http://www.w3.org/2000/svg"
 width="359.000000pt" height="359.000000pt" viewBox="0 0 359.000000 359.000000"
 preserveAspectRatio="xMidYMid meet">
<g transform="translate(0.000000,359.000000) scale(0.066667,-0.066667)"
fill="#000000" stroke="none">
<path d="M2427 5355 c-210 -36 -430 -130 -601 -257 -87 -64 -104 -71 -248 -94
-602 -95 -1111 -616 -1203 -1233 -13 -87 -29 -133 -58 -171 -215 -283 -304
-555 -304 -926 0 -109 3 -204 7 -210 4 -6 11 -43 16 -80 22 -164 153 -455 267
-593 31 -38 57 -75 57 -82 0 -631 608 -1263 1307 -1356 51 -7 93 -27 157 -78
472 -367 1269 -367 1753 1 65 50 107 70 157 76 655 78 1195 598 1291 1247 13
88 28 132 58 171 401 518 408 1297 17 1808 -41 53 -60 96 -68 150 -90 658
-604 1188 -1244 1282 -102 15 -132 27 -195 75 -308 234 -758 338 -1166 270z
m418 -271 c65 -8 141 -22 170 -31 99 -30 180 -62 180 -73 0 -5 -29 -19 -64
-29 -848 -249 -1271 -1244 -871 -2046 59 -116 55 -118 -85 -46 -639 329 -851
1151 -444 1722 266 373 682 561 1114 503z m964 -377 c89 -17 261 -77 311 -110
18 -12 58 -36 89 -53 151 -85 325 -278 420 -467 68 -135 66 -140 -38 -88 -847
428 -1847 -22 -2077 -936 -8 -30 -53 80 -85 204 -218 838 520 1614 1380 1450z
m-2372 -53 c-2 -6 -26 -52 -51 -101 -403 -779 32 -1793 872 -2034 l90 -26 -69
-31 c-318 -144 -709 -109 -1082 97 -75 41 -276 243 -345 346 -400 597 -165
1426 489 1723 82 38 105 44 96 26z m2778 -823 c664 -147 1060 -896 822 -1555
-39 -108 -45 -107 -79 8 -246 828 -1240 1239 -2037 841 -113 -56 -118 -52 -61
59 128 254 338 464 568 566 41 19 86 40 100 47 133 66 466 83 687 34z m-3747
-816 c72 -204 395 -629 478 -630 5 0 29 -17 53 -37 200 -172 656 -290 968
-251 247 31 326 54 521 152 106 54 109 49 45 -78 -140 -277 -314 -434 -661
-598 -130 -61 -476 -80 -672 -35 -693 155 -1111 968 -823 1596 l32 69 15 -53
c8 -29 28 -90 44 -135z m3400 -62 c1061 -266 1187 -1770 186 -2213 -106 -47
-106 -46 -34 94 347 674 52 1563 -637 1921 -97 50 -261 110 -304 110 -48 1 16
38 128 73 202 64 446 69 661 15z m-1044 -167 c76 -87 74 -128 -14 -222 -94
-100 -127 -99 -228 8 -87 92 -91 108 -43 180 82 126 192 139 285 34z m398
-272 c407 -205 650 -601 649 -1061 0 -839 -861 -1413 -1628 -1085 l-60 25 82
26 c869 270 1280 1244 869 2057 -52 104 -47 106 88 38z m-277 -313 c146 -455
30 -916 -316 -1244 -571 -542 -1501 -371 -1861 343 -65 129 -63 133 52 75 797
-398 1804 21 2038 849 37 127 38 127 87 -23z"/>
</g>
</svg>
