<svg width="17" height="28" viewBox="0 0 17 28" fill="none" xmlns="http://www.w3.org/2000/svg">
<path d="M16.1182 14.6803C16.0665 14.7872 15.9331 14.8615 15.8136 14.8999C15.7763 14.9121 15.7326 14.8433 15.7043 14.8492C15.649 14.8607 15.6455 14.9194 15.5864 14.9264C15.5666 14.9284 15.4912 14.8258 15.4724 14.8299C15.3702 14.8534 15.3334 14.9356 15.2508 14.9803C14.8437 15.2006 14.5019 15.4755 14.1438 15.7524C14.0259 15.8438 13.8178 15.8903 13.745 16.0337C13.7366 16.0506 13.8223 16.1212 13.8263 16.1301C13.8873 16.2664 13.742 16.096 13.6964 16.0997C13.516 16.1145 13.4003 16.2158 13.3365 16.3399C13.3096 16.393 13.5049 16.5082 13.3775 16.4613C13.3688 16.4582 13.296 16.365 13.2762 16.3671C13.2314 16.3721 13.1991 16.4341 13.1732 16.4468C13.123 16.4708 13.1177 16.4778 13.0816 16.5119C13.0316 16.5579 12.9332 16.5738 12.9006 16.6441C12.8938 16.6593 12.9935 16.7299 12.9904 16.7619C12.9873 16.7939 12.9337 16.8331 12.898 16.8287C12.8622 16.8243 12.802 16.7507 12.7839 16.7382C12.6317 16.6316 12.7572 16.8645 12.7548 16.8758C12.7043 17.0773 12.4942 17.0833 12.3762 17.2018C12.2869 17.292 12.2246 17.4217 12.1345 17.5025C12.0269 17.5985 11.8946 17.6386 11.8036 17.7454C11.7939 17.7566 11.9062 17.8444 11.8946 17.8583C11.7708 18.0053 11.6254 18.1288 11.4231 18.1961C11.4027 18.2028 11.3323 18.0975 11.3067 18.0989C11.1518 18.1094 10.8475 18.0668 11.1808 18.4984C11.1099 18.5395 11.0265 18.5921 10.8992 18.5651C10.8173 18.5478 10.753 18.4207 10.7541 18.5012C10.7543 18.5193 10.8497 18.5915 10.8436 18.6122C10.8178 18.6994 10.7288 18.7339 10.7162 18.8331C10.7138 18.8535 10.792 18.9255 10.8023 18.9423C10.8847 19.0789 10.6586 18.9429 10.6356 18.9396C10.4627 18.9163 10.4466 19.0096 10.3745 19.0769C10.3577 19.0925 10.4777 19.1742 10.4652 19.1929C10.3989 19.2881 10.3066 19.363 10.1827 19.3974C10.155 19.4047 10.0852 19.3026 10.0675 19.3018C9.99065 19.299 10.1447 19.4695 10.0741 19.47C10.0594 19.4703 9.9901 19.3925 9.98066 19.3858C9.83245 19.2804 9.99355 19.4787 9.99202 19.4881C9.97662 19.6119 9.74456 19.4688 9.70388 19.5626C9.6992 19.574 9.81042 19.649 9.79158 19.6754C9.66664 19.8517 9.48176 19.9854 9.25822 20.0601C9.22358 20.0718 9.17022 19.9854 9.16014 19.9782C9.00169 19.8673 9.16675 20.0631 9.16599 20.0775C9.15527 20.186 8.94824 20.0904 9.12264 20.3459C8.79551 20.5238 8.6648 20.8959 8.2218 20.9538C8.21638 20.9548 8.13322 20.8602 8.1228 20.8625C7.99641 20.8891 8.14921 21.0125 8.26751 21.2321C8.29718 21.2872 8.05445 21.1221 8.03607 21.1106C7.96847 21.068 7.84923 20.9228 7.83438 20.9163C7.71595 20.8672 8.15883 21.2988 8.11223 21.3457C8.11004 21.3464 8.0357 21.2598 8.02378 21.2557C7.98647 21.2428 8.00636 21.2868 7.96673 21.271C7.87533 21.2342 7.65316 21.0315 7.73511 21.1968C7.74588 21.2182 8.00196 21.4581 7.94851 21.4881C7.92699 21.4999 7.8576 21.5778 7.82089 21.5824C7.78422 21.5869 7.71845 21.4928 7.71352 21.4908C7.55229 21.4407 7.52955 21.3758 7.34526 21.2472C7.16156 21.1192 7.54105 21.4832 7.57121 21.5361C7.60122 21.5888 7.4733 21.5423 7.43298 21.522C7.39265 21.5017 7.35434 21.4384 7.32829 21.4302C7.1572 21.377 7.48694 21.6406 7.52651 21.719C7.62042 21.9046 7.30903 21.6645 7.24007 21.6794C7.22143 21.6835 7.29348 21.737 7.28925 21.753C7.27166 21.8155 7.16156 21.7535 7.19491 21.8779C7.20031 21.8982 7.32927 22.1008 7.18379 22.003C7.16288 21.9888 7.10376 21.9105 7.07131 21.9122C7.02274 21.9146 6.96181 21.9454 6.95739 21.9958C6.95416 22.033 7.09054 22.123 7.02992 22.1133C7.00291 22.1089 6.95764 22.0217 6.91241 22.019C6.86731 22.0162 6.81616 22.0731 6.79788 22.096C6.77969 22.1189 6.8768 22.1935 6.88093 22.201C6.90403 22.2441 6.90604 22.3249 6.90245 22.3283C6.73731 22.5144 6.43061 22.5316 6.30753 22.7505C6.29774 22.7676 6.39724 22.8492 6.39668 22.8527C6.38868 22.9366 6.18413 22.6596 6.07145 22.6111C6.25986 22.7903 6.20764 22.7759 6.19543 22.8284C6.1897 22.8539 6.26935 22.9166 6.27521 22.9253C6.36017 23.0565 6.20447 22.933 6.17176 22.9086C6.0514 22.8188 6.15885 22.9596 6.07822 22.8998C5.99811 22.8406 5.91876 22.7133 5.88905 22.7456C5.94613 22.8201 6.14108 22.969 6.14538 23.0204C6.16186 23.2147 5.86104 23.2458 5.77554 23.3032C5.69021 23.3606 5.6793 23.3958 5.61396 23.4135C5.49588 23.4456 5.65095 23.5457 5.66271 23.6507C5.67432 23.7558 5.38323 23.4193 5.30905 23.3585C5.23502 23.2977 5.29722 23.3743 5.25195 23.3454C5.20671 23.3166 5.17855 23.253 5.14539 23.2583C5.11224 23.2637 5.17957 23.4363 5.24328 23.5136C5.3783 23.6775 5.55887 23.8106 5.45282 23.8064C5.44662 23.8061 5.37361 23.7141 5.35405 23.717C5.20142 23.7425 5.10492 23.8312 4.95974 23.864C4.93965 23.8684 4.85879 23.7656 4.84606 23.7671C4.71317 23.7826 4.89447 23.9108 5.02576 24.1234C4.80607 23.8855 4.64359 23.768 4.58595 23.8229C4.55121 23.8559 4.65698 23.95 4.70553 24.0423C4.7202 24.0701 4.62763 24.0254 4.67029 24.0768C4.80962 24.2447 5.00416 24.3941 4.87763 24.3837C4.87183 24.383 4.79584 24.2908 4.78195 24.2945C4.69174 24.318 4.84563 24.4855 4.80361 24.5665C4.7707 24.6299 4.587 24.6177 4.51619 24.6566C4.26008 24.3982 4.26716 24.5089 4.42352 24.7073C4.38065 24.7357 4.35221 24.7841 4.29328 24.794C4.27307 24.7975 4.20637 24.7153 4.19683 24.7087C4.04767 24.6054 4.20476 24.7934 4.20384 24.8079C4.1863 24.9569 3.98764 24.894 4.03596 25.1013C4.03774 25.1088 4.21187 25.292 4.06013 25.1828C4.04977 25.1752 3.99472 25.0676 3.95103 25.0987C3.90733 25.1298 3.74101 25.1046 3.77189 25.2393C3.77926 25.2718 3.89254 25.4487 3.75369 25.3608C3.7349 25.3488 3.68737 25.2939 3.65394 25.2702C3.54721 25.1952 3.71917 25.3845 3.54708 25.2497C3.375 25.1149 3.2213 25.0388 3.2748 25.197C3.27622 25.2017 3.40698 25.3573 3.38825 25.3715C3.35822 25.3941 3.29107 25.4016 3.26455 25.4299C3.25191 25.4436 3.34922 25.5241 3.34856 25.528C3.31 25.6662 3.16785 25.6498 3.03878 25.7101C3.01494 25.721 3.08629 25.8921 2.95686 25.8298C2.81505 25.7618 2.41653 25.2875 2.43571 25.4762C2.44309 25.552 2.95348 26.149 2.60515 25.9236C2.55702 26.1139 2.29996 26.0773 2.28192 26.2984C2.28104 26.3082 2.41857 26.4798 2.40383 26.4903C2.38165 26.5057 2.29913 26.4437 2.28097 26.4524C2.20308 26.4867 2.21351 26.5999 2.14977 26.6444C2.12573 26.6615 2.05823 26.5796 2.02955 26.5999C2.00095 26.6203 2.08296 26.735 2.00228 26.7207C1.94101 26.7096 1.71494 26.5336 1.65824 26.5435C1.85524 26.743 1.8283 26.7618 1.84002 26.8547C1.84237 26.8727 1.91975 26.9333 1.92442 26.9454C1.94496 26.996 1.87385 26.9527 1.8983 27.0057C1.90412 27.0185 1.97167 27.0863 1.98025 27.1006C2.05583 27.2244 1.86377 27.1119 1.83042 27.0922C1.70353 27.0177 1.77937 27.118 1.71963 27.0984C1.65993 27.0788 1.64033 26.9992 1.59285 26.9986C1.49455 26.9973 1.44313 27.0706 1.39073 27.1168C1.37024 27.1356 1.47404 27.2126 1.47321 27.2174C1.45547 27.281 1.3182 27.226 1.47569 27.4286C0.981996 26.9913 1.49632 27.4982 1.34501 27.4632C1.33289 27.4602 1.10693 27.2459 1.0922 27.196C1.07749 27.1461 1.17295 27.1883 1.14696 27.1135C1.14092 27.0959 0.967723 26.8566 0.959744 26.8396C0.897449 26.7065 1.23141 27.0305 1.25135 27.0467C1.46755 27.2205 1.28576 26.9578 1.28105 26.9318C1.25939 26.8127 1.34704 26.8176 1.33755 26.7267C1.33174 26.6676 1.11887 26.4495 1.14638 26.4351C1.23773 26.3874 1.5626 26.6637 1.3675 26.3375C1.32597 26.2679 1.07649 26.0464 1.31204 26.1812C1.32687 26.1897 1.53367 26.3217 1.44811 26.193C1.43731 26.1768 1.36859 26.1082 1.36641 26.0989C1.35308 26.0376 1.42376 26.0763 1.42369 26.024C1.42362 25.9717 1.41598 25.9012 1.46908 25.8947C1.50097 25.8906 1.65191 25.9954 1.69182 26.0182C1.8063 26.0841 1.68447 25.9101 1.80873 26.0043C1.93367 26.0989 2.0707 26.2952 2.18142 26.3264C2.00457 26.1466 1.82493 25.9602 1.64796 25.7785C1.74145 25.6975 1.88492 25.6694 1.96454 25.574C1.97423 25.562 1.86727 25.4772 1.87519 25.4619C1.90902 25.3976 2.02022 25.4231 2.04389 25.345C2.06184 25.2842 2.00353 25.1395 2.01913 25.0727C2.24834 25.2516 2.24018 25.1212 2.30322 25.0955C2.32522 25.0864 2.37868 25.1419 2.40752 25.1486C2.51499 25.1727 2.31513 25.0119 2.29819 24.9721C2.22615 24.8019 2.63849 25.2058 2.68626 25.1379C2.68893 25.1344 2.50885 24.8794 2.50046 24.8607C2.44491 24.7396 2.58161 24.931 2.6182 24.9266C2.68505 24.9185 2.76304 24.9444 2.74328 24.8367C2.73722 24.805 2.63237 24.6387 2.76215 24.7187C2.77916 24.7291 2.84926 24.8028 2.85611 24.8044C2.97401 24.8269 2.74932 24.5997 2.70006 24.4959C2.65082 24.3921 2.84891 24.506 2.90244 24.5424C3.04115 24.6362 2.93495 24.6093 2.94515 24.6219C3.0667 24.772 3.07403 24.7179 3.10898 24.7059C3.33393 24.924 3.35345 24.8779 3.14432 24.6925C3.12142 24.6723 3.12382 24.7113 3.10898 24.7059C2.91221 24.4679 2.92045 24.404 3.16341 24.5673C3.27727 24.6438 3.37064 24.7725 3.38668 24.6752C3.39406 24.6312 3.23158 24.4885 3.21268 24.4243C3.16962 24.2775 3.37928 24.3525 3.4103 24.2766C3.42156 24.2491 3.31916 24.1845 3.32398 24.1628C3.33649 24.1049 3.43017 24.1366 3.4334 24.0691C3.43359 24.0629 3.33836 23.9833 3.34823 23.9712C3.42137 23.8778 3.54987 23.8613 3.63838 23.7759C3.68111 23.7346 3.70802 23.6112 3.76124 23.5774C3.85295 23.5182 4.07286 23.5526 4.10643 23.4572C4.12869 23.3954 4.03204 23.3172 3.99048 23.2397C3.90977 23.0894 4.17811 23.2347 4.21842 23.2585C4.21974 23.2593 4.20418 23.3161 4.26836 23.3417C4.37309 23.424 4.21842 23.2593 4.21842 23.2585C4.24455 23.2737 4.33665 23.2213 4.33428 23.1903C4.33295 23.1734 4.24575 23.0949 4.24662 23.0876C4.2691 22.9169 4.34482 22.799 4.48154 22.7398C4.48494 22.7397 4.575 22.835 4.58183 22.8337C4.67975 22.8182 4.60273 22.6685 4.58222 22.5544C4.56173 22.4404 4.62136 22.4258 4.80811 22.5572C4.82338 22.5019 4.94433 22.5216 5.01614 22.5351C5.08795 22.5486 4.91166 22.3642 4.91065 22.3581C4.8765 22.164 5.02596 22.221 5.12499 22.1541C5.17238 22.1226 5.22446 22.0182 5.24744 21.9558C5.2653 21.9061 5.32791 21.9281 5.33198 21.8699C5.33257 21.8621 5.24802 21.7861 5.24621 21.7817C5.18484 21.6509 5.36448 21.8639 5.40671 21.8918C5.56019 21.9933 5.64415 22.0452 5.62862 21.9407C5.62513 21.9168 5.37232 21.6042 5.37448 21.569C5.3778 21.5237 5.46995 21.6342 5.47085 21.5842C5.47102 21.5801 5.40806 21.518 5.42652 21.5051C5.51137 21.4441 5.62721 21.401 5.69669 21.319C5.70642 21.3081 5.59401 21.2222 5.60643 21.2047C5.66483 21.1228 5.74538 21.0496 5.86012 21.0277C5.88867 21.0226 5.94755 21.1026 5.97181 21.1195C6.11895 21.2218 5.96952 21.0088 5.97132 21.0001C6.00935 20.7879 6.2691 20.8562 6.31855 20.6506C6.32091 20.639 6.18008 20.3913 6.37052 20.5341C6.38324 20.5436 6.57728 20.6904 6.48159 20.553C6.47559 20.5445 6.37314 20.4714 6.40774 20.4547C6.44231 20.438 6.42498 20.3381 6.55665 20.3993C6.59819 20.4185 6.7946 20.5621 6.69235 20.3933C6.68506 20.3817 6.42998 20.0238 6.65978 20.2169C6.69756 20.2487 6.91822 20.4756 6.84322 20.3211C6.82858 20.2913 6.76488 20.2552 6.75371 20.204C6.73633 20.1253 6.83686 20.1447 6.77485 20.0073C6.76378 19.9831 6.63986 19.8032 6.77757 19.8961C6.79914 19.9106 6.86717 19.992 6.88738 19.9885C6.98382 19.9723 6.99284 19.8633 7.10172 19.8578C7.14015 19.8557 7.25056 19.9868 7.30404 19.9981C7.35752 20.0093 7.43119 19.9979 7.3981 19.9206C7.365 19.8433 7.14837 19.6749 7.16608 19.6264C7.24316 19.4156 7.49869 19.3859 7.65896 19.2586C7.68275 19.2398 7.5962 19.1886 7.62632 19.1558C7.73704 19.0349 7.87246 18.7703 8.11934 18.8161C8.31709 18.8528 8.30498 19.0434 8.41422 19.0295C8.46668 19.0226 8.27504 18.7667 8.27516 18.7525C8.27363 18.6109 8.42144 18.6613 8.45406 18.5679C8.46077 18.5486 8.3573 18.4706 8.36401 18.4552C8.38612 18.4016 8.46638 18.4023 8.49514 18.3587C8.50783 18.339 8.43557 18.2727 8.45584 18.2631C8.50356 18.2394 8.56426 18.2369 8.66401 18.267C8.6731 18.2698 8.73787 18.3774 8.7675 18.3541C8.81521 18.3163 8.93235 18.3273 8.91541 18.2119C8.91012 18.1774 8.75237 18.0185 8.89309 18.0965C8.92251 18.1127 9.10422 18.3112 8.97652 18.1104C8.95537 18.077 8.79522 17.794 8.96818 17.9067C9.01371 17.9363 9.18957 18.0716 9.18268 18.0296C9.18116 18.0233 9.08659 17.9478 9.09284 17.925C9.11636 17.8459 9.17917 17.8013 9.20521 17.722C9.212 17.7006 9.10305 17.6336 9.11597 17.6046C9.15138 17.5247 9.24577 17.4751 9.32969 17.4462C9.3608 17.4358 9.41933 17.523 9.42877 17.5295C9.58212 17.6342 9.42234 17.4456 9.42026 17.4274C9.40966 17.3164 9.5297 17.36 9.55432 17.2921C9.56134 17.2735 9.46924 17.1995 9.46438 17.1896C9.4184 17.0909 9.54789 17.2597 9.58102 17.2594C9.67431 17.2592 9.71976 17.2004 9.75642 17.1425C9.76977 17.1211 9.65396 17.0444 9.66705 17.0263C9.7427 16.9174 9.84781 16.8308 9.99091 16.7938C10.018 16.7871 10.0815 16.8719 10.102 16.8853C10.2448 16.9794 10.1189 16.7821 10.1117 16.7585C10.0787 16.6509 10.1588 16.7019 10.1795 16.6567C10.2797 16.4347 10.522 16.2793 10.7008 16.1541C10.9335 15.9905 11.1578 15.9073 11.3284 15.7001C11.3393 15.687 11.2286 15.6004 11.2367 15.5879C11.3466 15.4305 11.5167 15.3375 11.6221 15.1751C11.6309 15.1619 11.5216 15.0843 11.5326 15.06C11.5546 15.0096 11.6055 14.9689 11.6719 14.9621C11.7041 14.9587 11.7604 15.0629 11.7912 15.0577C11.8631 15.046 11.9146 15.0078 11.9426 14.9499C11.9543 14.925 11.831 14.857 11.8537 14.8321C12.006 14.6608 12.1485 14.4854 12.4359 14.4457C12.4556 14.443 12.6598 14.6275 12.6464 14.5664C12.5942 14.5107 12.5307 14.4473 12.4738 14.3889C12.6783 14.1223 12.9789 13.9565 13.2255 13.7306C13.2359 13.7211 13.1157 13.6353 13.1353 13.6163C13.2484 13.5062 13.3282 13.3693 13.5448 13.3575C13.5661 13.3562 13.7415 13.5432 13.7475 13.4824C13.7483 13.4715 13.7745 13.3971 13.7481 13.3448C13.744 13.3371 13.6502 13.2617 13.664 13.243C13.7453 13.136 13.8632 13.0567 14.0089 13.0144C14.0325 13.0077 14.1065 13.1139 14.1241 13.1099C14.2485 13.0811 14.2634 12.9293 14.4184 12.9378C14.5225 12.9439 14.66 13.1177 14.8393 13.2449C14.8646 13.2628 14.8984 13.2359 14.9891 13.3235C15.2173 13.5436 15.4481 13.8038 15.6931 14.0367C15.7458 14.0869 15.731 13.9908 15.8313 14.1393C15.838 14.1493 15.8498 14.22 15.8847 14.2695C15.9088 14.3037 16.0086 14.3853 16.0356 14.4329C16.0626 14.4805 15.9753 14.4159 16.0021 14.4768C16.0294 14.5383 16.1401 14.634 16.1182 14.6803ZM5.33806 22.5946C5.45166 22.6542 5.1384 22.333 5.18512 22.4381C5.18775 22.4436 5.33242 22.5917 5.33806 22.5946ZM2.12372 25.9092C2.29891 26.0138 2.11731 25.7839 1.98436 25.7008C1.85153 25.6177 2.07056 25.8775 2.12372 25.9092ZM1.8601 26.3771C2.01165 26.4462 1.56829 25.9898 1.61507 26.1249C1.61765 26.1326 1.85129 26.3731 1.8601 26.3771ZM14.7621 13.4093C14.7667 13.4131 14.7926 13.3954 14.789 13.3907C14.6999 13.2783 14.6481 13.3138 14.7621 13.4093ZM1.60836 26.8513C1.68208 26.8993 1.64889 26.7919 1.55723 26.7323C1.48348 26.6843 1.51664 26.7916 1.60836 26.8513ZM7.08409 21.5257C7.08924 21.53 7.10914 21.5186 7.0821 21.4922C6.99497 21.4072 6.9975 21.4533 7.08409 21.5257ZM0.996642 27.4733C1.10472 27.3991 1.53158 27.7155 1.3904 27.7728C1.36484 27.7832 1.31063 27.6156 1.25425 27.6049C1.15136 27.5858 1.35689 27.8469 1.18914 27.7646C1.15852 27.7494 0.989653 27.4767 0.996286 27.4727C0.996404 27.4729 0.996523 27.4731 0.996642 27.4733ZM5.73464 22.9601C5.73937 22.9638 5.76501 22.9461 5.76137 22.9414C5.67238 22.829 5.62068 22.8645 5.73464 22.9601ZM8.19299 20.8091C8.20313 20.8169 8.26173 20.775 8.25514 20.7651C8.11666 20.5742 7.99767 20.6584 8.19299 20.8091ZM4.50847 24.6506C4.58616 24.7755 4.56982 24.8157 4.42376 24.7073C4.45399 24.6906 4.47862 24.668 4.50847 24.6506Z" fill="#FB966E"/>
<path d="M12.9036 15.4176C12.8007 15.37 12.7315 15.2417 12.6971 15.1262C12.6862 15.0901 12.7543 15.0458 12.7493 15.0183C12.7394 14.9647 12.6823 14.9627 12.6769 14.9053C12.6754 14.886 12.7774 14.8099 12.7738 14.7917C12.7535 14.6927 12.6743 14.6588 12.6327 14.5794C12.4281 14.188 12.1687 13.8617 11.9076 13.5195C11.8215 13.4067 11.7814 13.205 11.6433 13.1376C11.6271 13.1298 11.5561 13.2151 11.5474 13.2193C11.4129 13.2821 11.5827 13.1362 11.5803 13.0919C11.5703 12.9164 11.4744 12.8061 11.355 12.747C11.3039 12.7221 11.1867 12.9154 11.2357 12.79C11.2389 12.7815 11.3315 12.7081 11.33 12.6888C11.3263 12.6453 11.2666 12.6153 11.2549 12.5905C11.2327 12.5421 11.2261 12.5371 11.1937 12.5028C11.1501 12.4552 11.1371 12.3597 11.0693 12.3295C11.0546 12.3234 10.9834 12.4223 10.9522 12.4201C10.9211 12.4179 10.8842 12.3666 10.8894 12.3316C10.8946 12.2967 10.9678 12.2362 10.9805 12.2182C11.0883 12.0671 10.858 12.1953 10.847 12.1932C10.6518 12.149 10.6513 11.9443 10.5386 11.8323C10.4529 11.7474 10.328 11.6899 10.2515 11.6041C10.1606 11.5016 10.1248 11.3736 10.023 11.2876C10.0123 11.2784 9.92387 11.3901 9.91066 11.3791C9.77039 11.2621 9.65357 11.1234 9.59304 10.9278C9.58706 10.9081 9.69146 10.8368 9.69073 10.8119C9.68436 10.6611 9.73348 10.3634 9.30434 10.6992C9.26606 10.631 9.21688 10.551 9.24637 10.4263C9.26529 10.346 9.3908 10.2801 9.31226 10.2832C9.29466 10.2838 9.22191 10.3787 9.20185 10.3732C9.11747 10.3502 9.08604 10.2643 8.98962 10.2545C8.96981 10.2527 8.89766 10.3307 8.88108 10.3412C8.74583 10.425 8.88404 10.2011 8.88785 10.1786C8.91485 10.0094 8.82432 9.99609 8.76047 9.92745C8.7457 9.91148 8.663 10.0305 8.64516 10.0188C8.55399 9.95653 8.48319 9.86839 8.45284 9.74852C8.44633 9.72161 8.54762 9.65105 8.5489 9.6338C8.55353 9.55876 8.38343 9.71325 8.38473 9.64442C8.3848 9.63012 8.46237 9.56057 8.46915 9.55119C8.57564 9.40406 8.3783 9.56609 8.3691 9.56483C8.24878 9.55291 8.3941 9.32307 8.30367 9.28576C8.29266 9.28148 8.21682 9.39179 8.19156 9.37408C8.02277 9.25667 7.89699 9.07976 7.82979 8.86367C7.81922 8.8302 7.90485 8.776 7.91209 8.766C8.02417 8.60874 7.82911 8.77457 7.81514 8.77418C7.70957 8.76644 7.80797 8.5622 7.55456 8.73863C7.38922 8.42412 7.02971 8.30599 6.98431 7.87551C6.98351 7.87025 7.0778 7.7868 7.07583 7.7767C7.05305 7.65413 6.92889 7.8062 6.71189 7.92703C6.65736 7.95733 6.82445 7.71654 6.83614 7.69834C6.87934 7.63137 7.02388 7.51148 7.03057 7.49683C7.08143 7.38014 6.64956 7.82273 6.60502 7.77847C6.60436 7.77635 6.69067 7.70171 6.69494 7.68998C6.70848 7.65328 6.66503 7.67378 6.6814 7.63475C6.71957 7.54471 6.92279 7.32302 6.75953 7.40706C6.73847 7.4181 6.49811 7.67377 6.47018 7.6224C6.45926 7.60172 6.38505 7.53601 6.38151 7.50033C6.37798 7.46469 6.47135 7.39822 6.47342 7.39336C6.52634 7.23491 6.59014 7.21112 6.72017 7.02822C6.84961 6.84591 6.48517 7.22502 6.4329 7.25573C6.38072 7.28632 6.42923 7.16043 6.45004 7.12061C6.47086 7.08079 6.5335 7.04185 6.54221 7.01624C6.59831 6.8481 6.33308 7.17619 6.25562 7.21673C6.07238 7.31293 6.31419 7.00332 6.30137 6.93646C6.29788 6.91839 6.24388 6.98998 6.22841 6.98625C6.16796 6.97066 6.23113 6.86176 6.10899 6.89739C6.08906 6.90317 5.88833 7.03396 5.98734 6.88968C6.00168 6.86893 6.0795 6.80934 6.07868 6.77774C6.07757 6.73044 6.04898 6.67181 5.99999 6.66875C5.96379 6.66653 5.87259 6.80176 5.88358 6.74242C5.88854 6.71597 5.97469 6.66965 5.97848 6.62549C5.98236 6.58143 5.92811 6.533 5.90628 6.51574C5.88444 6.49858 5.80924 6.59513 5.80188 6.59934C5.7592 6.62294 5.68036 6.62692 5.67715 6.62351C5.49983 6.46715 5.49072 6.16854 5.28037 6.05401C5.26399 6.0449 5.18192 6.14394 5.17849 6.14349C5.09691 6.13779 5.37208 5.93142 5.42219 5.82035C5.24283 6.00852 5.2581 5.95725 5.20721 5.94667C5.18253 5.94171 5.11944 6.02094 5.11081 6.02687C4.98076 6.11298 5.10507 5.95809 5.12968 5.92559C5.22018 5.80599 5.08023 5.91428 5.14054 5.83416C5.20034 5.75458 5.32642 5.67403 5.29562 5.64587C5.22157 5.70339 5.07155 5.89719 5.0213 5.90266C4.83146 5.92359 4.80869 5.63106 4.75479 5.54914C4.70102 5.46737 4.66699 5.45762 4.65127 5.39436C4.62293 5.28004 4.52152 5.43372 4.41885 5.44781C4.31605 5.46176 4.65147 5.16954 4.71255 5.09569C4.77371 5.02199 4.69745 5.08456 4.72672 5.03969C4.75602 4.99486 4.81871 4.96581 4.81435 4.93362C4.80996 4.90143 4.63999 4.97139 4.56297 5.03545C4.39982 5.17119 4.2655 5.35057 4.27222 5.24706C4.27271 5.24101 4.36426 5.16752 4.36194 5.14853C4.34082 5.00035 4.25682 4.90848 4.22847 4.76775C4.2247 4.74827 4.32689 4.66687 4.32573 4.6545C4.31398 4.52531 4.18439 4.70529 3.97382 4.83861C4.21132 4.61846 4.32996 4.45711 4.27783 4.40228C4.24657 4.36924 4.15217 4.47471 4.06094 4.52435C4.03347 4.53935 4.07934 4.44798 4.02822 4.49086C3.86099 4.6309 3.71043 4.82431 3.72378 4.70069C3.72461 4.69502 3.81641 4.61862 3.81315 4.60517C3.79245 4.5178 3.62529 4.67204 3.54742 4.63309C3.48637 4.60258 3.50294 4.42317 3.46676 4.35511C3.72511 4.09894 3.61697 4.10862 3.41962 4.26602C3.39305 4.22493 3.34649 4.19842 3.33831 4.1412C3.33541 4.12159 3.41729 4.0545 3.42392 4.04503C3.52841 3.89702 3.34113 4.05488 3.32707 4.05435C3.18216 4.04097 3.24847 3.8457 3.04512 3.898C3.03784 3.89992 2.85479 4.07428 2.96508 3.92361C2.97277 3.91331 3.07902 3.85695 3.04978 3.81513C3.02055 3.77329 3.04936 3.61051 2.91722 3.64398C2.88534 3.65198 2.71008 3.76685 2.79919 3.62927C2.81135 3.61065 2.86613 3.56293 2.88999 3.52975C2.9658 3.42381 2.77695 3.59621 2.9127 3.42505C3.04843 3.2539 3.12651 3.10215 2.97089 3.15827C2.96623 3.15976 2.81129 3.29114 2.79791 3.27323C2.77667 3.24452 2.77103 3.17924 2.74402 3.15409C2.73104 3.14211 2.65013 3.23899 2.64634 3.23845C2.51257 3.20431 2.53207 3.06531 2.47652 2.94097C2.46651 2.918 2.2979 2.99184 2.36183 2.86409C2.43169 2.72412 2.90413 2.32371 2.7196 2.34713C2.64552 2.35622 2.0507 2.86877 2.27917 2.52352C2.09484 2.48135 2.13693 2.2298 1.92186 2.21774C1.91226 2.21713 1.74158 2.35551 1.73168 2.3414C1.71728 2.32016 1.77972 2.23815 1.77175 2.22066C1.74018 2.14558 1.62958 2.15857 1.58778 2.09754C1.57175 2.07453 1.65325 2.00668 1.63414 1.97922C1.61498 1.95185 1.50112 2.03467 1.51709 1.95564C1.52947 1.89563 1.70667 1.67082 1.69849 1.61578C1.49902 1.81284 1.48139 1.78705 1.39047 1.8008C1.3729 1.80354 1.31184 1.8805 1.29997 1.88535C1.25013 1.90664 1.2941 1.83623 1.24183 1.86139C1.22923 1.86739 1.16137 1.93494 1.14724 1.94367C1.0246 2.02046 1.13913 1.83038 1.15916 1.79737C1.23501 1.6718 1.13533 1.74824 1.15592 1.68951C1.17653 1.63081 1.25457 1.60971 1.25639 1.5634C1.26006 1.46753 1.18989 1.41923 1.14618 1.36929C1.12832 1.34978 1.05069 1.45291 1.04603 1.45222C0.984476 1.43651 1.04155 1.3013 0.840097 1.45992C1.27881 0.967634 0.771648 1.48177 0.809616 1.33337C0.812801 1.32148 1.0274 1.09582 1.07642 1.0802C1.1254 1.06461 1.08191 1.15874 1.15546 1.13153C1.17277 1.1252 1.41048 0.950354 1.42726 0.942146C1.55851 0.878083 1.23431 1.2118 1.21802 1.23164C1.0432 1.44678 1.30382 1.26296 1.3293 1.25772C1.44593 1.23364 1.43897 1.31921 1.5279 1.30769C1.58567 1.30054 1.80362 1.08754 1.8169 1.11401C1.86117 1.20188 1.58364 1.52554 1.90654 1.32716C1.97547 1.28492 2.19772 1.03615 2.06037 1.26917C2.0517 1.28385 1.91779 1.48878 2.04548 1.40214C2.06156 1.39121 2.13012 1.32249 2.13928 1.32012C2.19936 1.30561 2.15987 1.37547 2.21087 1.3741C2.26187 1.37272 2.33075 1.36352 2.33579 1.41513C2.33894 1.44612 2.23297 1.5959 2.20984 1.63538C2.14273 1.74865 2.31534 1.62552 2.22042 1.74903C2.12507 1.87321 1.93019 2.01172 1.89708 2.12045C2.0768 1.94353 2.26305 1.76371 2.44463 1.58663C2.5212 1.67576 2.54506 1.81493 2.63606 1.89018C2.64752 1.89933 2.73285 1.79293 2.7476 1.80026C2.80945 1.83165 2.78182 1.9407 2.85737 1.96182C2.91622 1.9778 3.05875 1.91733 3.12345 1.93088C2.94329 2.15883 3.07062 2.14762 3.09415 2.20844C3.10248 2.22965 3.04699 2.28317 3.03972 2.31145C3.0136 2.41684 3.17535 2.21795 3.21459 2.20044C3.38232 2.12595 2.97817 2.53808 3.04322 2.58296C3.04653 2.58548 3.29968 2.40351 3.31813 2.39487C3.43762 2.33768 3.24756 2.47575 3.25098 2.51132C3.2572 2.57629 3.22998 2.65298 3.33547 2.63102C3.36652 2.62432 3.53133 2.51793 3.45009 2.64647C3.43947 2.66331 3.36584 2.7335 3.36413 2.74022C3.33926 2.85574 3.5664 2.63098 3.66883 2.58036C3.77124 2.52976 3.65527 2.72574 3.61846 2.77884C3.52347 2.91644 3.55244 2.81222 3.53987 2.82248C3.39051 2.94474 3.44307 2.95054 3.45389 2.98431C3.23557 3.20909 3.28005 3.22697 3.466 3.01843C3.48626 2.9956 3.44824 2.99891 3.45389 2.98431C3.69083 2.78651 3.75293 2.79294 3.58766 3.03392C3.51017 3.14684 3.38242 3.24109 3.47684 3.2543C3.5196 3.2604 3.66271 3.09841 3.72585 3.07838C3.86999 3.03273 3.79168 3.23902 3.86487 3.26737C3.89143 3.27765 3.95699 3.1762 3.97802 3.18035C4.0341 3.19111 4.00092 3.28324 4.06658 3.2847C4.07263 3.28473 4.15261 3.18989 4.16416 3.19921C4.25343 3.26818 4.26634 3.39307 4.3474 3.47723C4.38661 3.51785 4.50618 3.54101 4.53783 3.59205C4.59321 3.67999 4.55427 3.89526 4.64636 3.9256C4.70606 3.94577 4.78473 3.84958 4.86141 3.80712C5.00989 3.72466 4.8615 3.98994 4.83734 4.02983C4.83652 4.03113 4.78155 4.01738 4.755 4.0806C4.67215 4.18477 4.83655 4.02985 4.83734 4.02983C4.82182 4.05569 4.87061 4.14417 4.90095 4.14109C4.91749 4.13936 4.99618 4.05238 5.00324 4.05305C5.16915 4.0707 5.28214 4.14159 5.33649 4.2734C5.33646 4.27671 5.24134 4.3669 5.24241 4.37353C5.25511 4.46862 5.40296 4.38978 5.5147 4.36693C5.6264 4.3441 5.63911 4.40187 5.50636 4.58724C5.55992 4.60075 5.5377 4.71917 5.52271 4.78952C5.50773 4.85987 5.69195 4.68338 5.69795 4.68225C5.88804 4.64409 5.82872 4.79124 5.89147 4.88612C5.92099 4.93154 6.02148 4.97971 6.08177 5.00055C6.12972 5.01673 6.10677 5.07832 6.16335 5.08083C6.17095 5.08122 6.24722 4.99688 6.25153 4.995C6.38059 4.9319 6.16842 5.11237 6.14016 5.15424C6.03734 5.30643 5.98468 5.38958 6.08689 5.37183C6.11036 5.36783 6.42141 5.11353 6.45569 5.11475C6.49975 5.11686 6.38972 5.20947 6.43843 5.20909C6.44251 5.20915 6.50458 5.14621 6.51674 5.16389C6.57401 5.2451 6.61313 5.35696 6.69135 5.42265C6.7018 5.43187 6.78834 5.32012 6.80506 5.3318C6.88345 5.38668 6.95282 5.46339 6.97133 5.57471C6.97558 5.60243 6.89614 5.66183 6.879 5.68591C6.77557 5.83192 6.98698 5.68091 6.99542 5.68244C7.20136 5.71422 7.12834 5.96919 7.32756 6.01226C7.33874 6.01427 7.58377 5.87077 7.4398 6.06002C7.43027 6.07265 7.28222 6.26551 7.41858 6.16878C7.4271 6.16272 7.50089 6.06101 7.51631 6.09432C7.53175 6.12761 7.62956 6.10822 7.56664 6.23813C7.54687 6.2791 7.40189 6.4742 7.56906 6.37028C7.58059 6.36288 7.93589 6.10523 7.74187 6.33411C7.70988 6.37175 7.48316 6.59256 7.63564 6.51558C7.66509 6.50055 7.70191 6.43754 7.75208 6.42538C7.82923 6.40646 7.80787 6.50496 7.94334 6.44107C7.96723 6.42966 8.14568 6.30435 8.05171 6.44094C8.03699 6.46233 7.95595 6.5307 7.95884 6.55031C7.97226 6.64393 8.07827 6.65 8.08092 6.75603C8.08201 6.79344 7.9514 6.90437 7.9391 6.9568C7.92681 7.00922 7.93611 7.08076 8.0123 7.04657C8.08851 7.01236 8.25805 6.79694 8.30491 6.813C8.50857 6.88288 8.53115 7.13128 8.6512 7.28436C8.66899 7.30708 8.72107 7.22142 8.75223 7.24996C8.86741 7.35489 9.12199 7.48032 9.07113 7.72216C9.03043 7.91589 8.8449 7.90885 8.85567 8.01501C8.86113 8.06598 9.11543 7.87273 9.12928 7.8725C9.26738 7.86747 9.21449 8.01284 9.3048 8.04231C9.32347 8.04837 9.40204 7.94554 9.41694 7.9517C9.46862 7.97192 9.46592 8.05019 9.50767 8.07713C9.52662 8.08902 9.59305 8.0169 9.60188 8.03643C9.62382 8.08236 9.62471 8.14148 9.59286 8.23949C9.58996 8.24842 9.48346 8.31426 9.50536 8.34257C9.54105 8.38815 9.52743 8.50263 9.64032 8.48323C9.67409 8.47721 9.83295 8.31943 9.75343 8.45858C9.73685 8.48767 9.53876 8.6698 9.73776 8.54027C9.77089 8.51881 10.0508 8.3556 9.93661 8.52705C9.90658 8.57219 9.77029 8.74703 9.81142 8.73926C9.81758 8.73762 9.89356 8.64352 9.91567 8.64905C9.99214 8.67001 10.0341 8.73013 10.1108 8.75354C10.1314 8.75962 10.1995 8.65172 10.2275 8.66359C10.3045 8.69612 10.3505 8.78691 10.3765 8.86801C10.3859 8.89808 10.2994 8.95733 10.2929 8.9667C10.187 9.11883 10.3748 8.95833 10.3926 8.95585C10.5011 8.94273 10.4556 9.06086 10.5212 9.08317C10.5391 9.08955 10.6135 8.99791 10.6234 8.99292C10.7208 8.94561 10.553 9.07609 10.5524 9.10838C10.5503 9.19934 10.6064 9.24218 10.662 9.27648C10.6825 9.28896 10.7602 9.17413 10.7775 9.18644C10.8818 9.25748 10.9636 9.35779 10.9961 9.49639C11.002 9.52266 10.9177 9.58668 10.9042 9.60697C10.8088 9.74858 11.0043 9.62087 11.0275 9.61328C11.1333 9.57846 11.0815 9.6578 11.125 9.67688C11.339 9.76896 11.4845 10.0013 11.6021 10.1726C11.7558 10.3953 11.8313 10.6119 12.0291 10.7731C12.0415 10.7834 12.1287 10.6733 12.1407 10.6809C12.2914 10.7841 12.3779 10.9476 12.5336 11.0463C12.5462 11.0546 12.6246 10.946 12.648 10.9562C12.6966 10.9763 12.7351 11.025 12.7399 11.0896C12.7425 11.1209 12.6395 11.1784 12.6438 11.2083C12.6534 11.2781 12.6893 11.3273 12.7451 11.3531C12.7691 11.3639 12.8385 11.2421 12.8622 11.2636C13.0254 11.4078 13.1928 11.5423 13.2244 11.8215C13.2265 11.8407 13.0415 12.0444 13.1014 12.0298C13.157 11.9775 13.2204 11.914 13.2788 11.8571C13.5337 12.0498 13.6878 12.3387 13.9018 12.5736C13.9109 12.5834 13.9975 12.4641 14.0155 12.4827C14.12 12.5903 14.2515 12.6647 14.2576 12.8755C14.2584 12.8963 14.0717 13.0719 14.1308 13.0762C14.1414 13.0768 14.2133 13.1004 14.265 13.0734C14.2726 13.0692 14.3484 12.9759 14.3663 12.9888C14.4686 13.0654 14.543 13.1785 14.5806 13.3194C14.5865 13.3423 14.4811 13.417 14.4845 13.4341C14.5095 13.5547 14.6572 13.5655 14.645 13.7168C14.6365 13.8184 14.4636 13.9569 14.3351 14.1348C14.317 14.16 14.3424 14.1922 14.2547 14.2829C14.0344 14.5109 13.7749 14.7424 13.5417 14.9871C13.4915 15.0397 13.5855 15.0229 13.4383 15.1244C13.4283 15.1312 13.3591 15.1444 13.31 15.1797C13.276 15.2041 13.194 15.3034 13.1468 15.331C13.0997 15.3585 13.165 15.2717 13.1049 15.2994C13.0442 15.3275 12.9482 15.4378 12.9036 15.4176ZM5.45664 5.10488C5.39565 5.21713 5.71667 4.90367 5.61305 4.95185C5.60766 4.95455 5.45957 5.09931 5.45664 5.10488ZM2.3053 2.05376C2.19889 2.22719 2.42756 2.04438 2.51199 1.91267C2.5963 1.78109 2.33751 2.00113 2.3053 2.05376ZM1.85567 1.80843C1.78451 1.95792 2.24053 1.51423 2.10764 1.56323C2.10006 1.56592 1.85978 1.79974 1.85567 1.80843ZM14.1767 14.0637C14.1729 14.0683 14.1895 14.0931 14.1942 14.0894C14.3059 13.9997 14.2726 13.9501 14.1767 14.0637ZM1.39963 1.57484C1.35101 1.64792 1.45646 1.61287 1.51694 1.52201C1.56558 1.44891 1.46011 1.48392 1.39963 1.57484ZM6.45514 6.78054C6.45082 6.78567 6.46142 6.80478 6.48784 6.77776C6.5729 6.69069 6.52793 6.6943 6.45514 6.78054ZM0.808403 0.993966C0.878058 1.09749 0.558953 1.52159 0.506592 1.38536C0.497103 1.3607 0.661897 1.30366 0.673663 1.24843C0.694932 1.14763 0.435206 1.35454 0.51965 1.18893C0.535189 1.1587 0.805258 0.987238 0.809075 0.993602C0.808852 0.993724 0.808628 0.993846 0.808403 0.993966ZM5.09035 5.50068C5.08667 5.50539 5.10327 5.52994 5.10792 5.52627C5.21977 5.4367 5.1864 5.38719 5.09035 5.50068ZM7.1261 7.8438C7.11829 7.85388 7.15767 7.90997 7.16746 7.90329C7.35706 7.7635 7.27794 7.6496 7.1261 7.8438ZM3.4728 4.34743C3.34903 4.4263 3.31026 4.41138 3.41959 4.26625C3.43514 4.29531 3.4566 4.31876 3.4728 4.34743Z" fill="#FB966E"/>
</svg>
