<svg width="1280" height="2" viewBox="0 0 1280 2" fill="none" xmlns="http://www.w3.org/2000/svg">
<path d="M716.98 0.37985C745.233 0.512837 767.473 -0.0749272 801.908 0.00815345C836.344 0.0912353 841.501 0.403014 880.938 0.332867C920.373 0.262734 959.831 0.475984 977.39 0.34789C994.949 0.219759 996.802 0.607151 1021.74 0.521112C1046.67 0.435085 1061.78 0.485652 1083.59 0.611571C1105.4 0.737493 1172.39 0.844999 1196.75 0.690317C1221.12 0.535635 1248.9 0.804034 1265.61 0.867691C1270.82 0.887519 1274.91 0.914655 1278.05 0.942887C1279.39 0.954858 1280 0.9799 1280 1.00462C1280 1.00464 1280 1.00465 1280 1.00467C1280 1.03545 1279.05 1.06571 1277.34 1.0696C1269.04 1.08847 1256.63 1.13828 1241.98 1.24989C1214.66 1.45801 1211.67 1.22803 1174.78 1.33497C1137.88 1.44191 1115.72 1.65572 1072.3 1.51745C1028.89 1.3792 1018.92 1.95775 957.644 1.62987C896.367 1.30201 889.917 1.90707 828.852 1.98753C767.787 2.06797 690.704 1.73412 653.893 1.7618C617.082 1.78948 567.642 1.85996 515.458 1.7801C463.274 1.70025 398.854 1.90181 341.251 1.75933C283.648 1.61686 202.211 1.43691 164.587 1.31632C126.966 1.19575 117.796 1.16855 81.5829 1.24222C60.7674 1.28457 32.092 1.24465 7.87063 1.08889C-4.31912 1.01051 -1.55692 0.901368 10.7125 0.849148C28.6543 0.772791 43.3826 0.823805 52.6273 0.687409C71.1 0.414816 78.9512 0.310245 102.272 0.468908C125.591 0.62755 136.579 0.267014 150.173 0.308511C163.767 0.35003 163.544 0.56269 232.665 0.398851C301.787 0.235005 339.68 0.1932 365.856 0.153867C392.032 0.114534 446.689 0.299106 489.349 0.232491C532.01 0.165881 618.737 0.226941 653.698 0.117882C688.657 0.00883103 688.729 0.246864 716.98 0.37985Z" fill="#FB966E"/>
</svg>
