<svg width="42" height="42" viewBox="0 0 42 42" fill="none" xmlns="http://www.w3.org/2000/svg">
<path d="M21.7071 0.292893C21.3166 -0.0976311 20.6834 -0.0976311 20.2929 0.292893L13.9289 6.65685C13.5384 7.04738 13.5384 7.68054 13.9289 8.07107C14.3195 8.46159 14.9526 8.46159 15.3431 8.07107L21 2.41421L26.6569 8.07107C27.0474 8.46159 27.6805 8.46159 28.0711 8.07107C28.4616 7.68054 28.4616 7.04738 28.0711 6.65685L21.7071 0.292893ZM20.2929 41.7071C20.6834 42.0976 21.3166 42.0976 21.7071 41.7071L28.0711 35.3431C28.4616 34.9526 28.4616 34.3195 28.0711 33.9289C27.6805 33.5384 27.0474 33.5384 26.6569 33.9289L21 39.5858L15.3431 33.9289C14.9526 33.5384 14.3195 33.5384 13.9289 33.9289C13.5384 34.3195 13.5384 34.9526 13.9289 35.3431L20.2929 41.7071ZM0.292893 20.2929C-0.0976311 20.6834 -0.0976311 21.3166 0.292893 21.7071L6.65685 28.0711C7.04738 28.4616 7.68054 28.4616 8.07107 28.0711C8.46159 27.6805 8.46159 27.0474 8.07107 26.6569L2.41421 21L8.07107 15.3431C8.46159 14.9526 8.46159 14.3195 8.07107 13.9289C7.68054 13.5384 7.04738 13.5384 6.65685 13.9289L0.292893 20.2929ZM41.7071 21.7071C42.0976 21.3166 42.0976 20.6834 41.7071 20.2929L35.3431 13.9289C34.9526 13.5384 34.3195 13.5384 33.9289 13.9289C33.5384 14.3195 33.5384 14.9526 33.9289 15.3431L39.5858 21L33.9289 26.6569C33.5384 27.0474 33.5384 27.6805 33.9289 28.0711C34.3195 28.4616 34.9526 28.4616 35.3431 28.0711L41.7071 21.7071ZM21 1L20 1L20 41H21H22L22 1L21 1ZM1 21V22H41V21V20H1V21Z" fill="white"/>
</svg>
