<svg width="176" height="209" viewBox="0 0 176 209" fill="none" xmlns="http://www.w3.org/2000/svg">
<path d="M175 208C175 208 103 194 63 160.5C-30.0712 82.5531 230 116.5 13.5 27.5002" stroke="#4C3B33" stroke-dasharray="8 4"/>
<path d="M7.50342 3.74231C9.62031 3.74231 11.3031 5.52119 11.3032 7.67395C11.3032 9.82686 9.62041 11.6066 7.50342 11.6066C5.38653 11.6064 3.70361 9.82678 3.70361 7.67395C3.70378 5.52126 5.38664 3.74244 7.50342 3.74231Z" fill="white" stroke="#4C3B33"/>
<path d="M7.5 0.5C11.3477 0.5 14.4999 3.74957 14.5 7.7998C14.5 9.65021 13.7432 11.9045 12.5322 14.7168C11.9303 16.1146 11.2258 17.6308 10.4619 19.2861C9.69916 20.9391 8.87897 22.7267 8.05273 24.6572C7.87195 25.0796 7.24681 25.0811 7.06445 24.6572C6.23348 22.7259 5.40375 20.9377 4.62891 19.2842C3.85279 17.6279 3.13423 16.1123 2.51855 14.7139C1.27956 11.8997 0.5 9.64735 0.5 7.7998C0.50005 3.7496 3.65232 0.500041 7.5 0.5Z" stroke="#4C3B33"/>
</svg>
